<?xml version="1.0" encoding="UTF-8"?> <svg xmlns="http://www.w3.org/2000/svg" id="Layer_1" data-name="Layer 1" viewBox="0 0 1524.19 2815.21"><defs><style>.cls-1{fill:#323231;}.cls-2{fill:#b80f14;}.cls-3{fill:#fff;}</style></defs><title>Fundo_Printz_Catálogo_Final</title><path class="cls-1" d="M1524.1,2781.89h-1.83l.06,15.13a51.54,51.54,0,0,0-1,12.9l.3,4.2c-.17.36-.34.73-.49,1.09v-33.32H0V0H1524.1Z" transform="translate(0.09 0)"></path><path class="cls-2" d="M1524.07,2025.89h0s-1.42,508.19-1.72,597.52q-.13,41.21-.25,82.41c-.31,8.7-.6,17.5-.5,26.2,0,5.5.19,10.9.5,16.4l.14,33.47.06,15.13a50.64,50.64,0,0,0-1,12.9c.1,1.4.21,2.8.31,4.2-.17.36-.35.73-.5,1.09v-33.32H2.18c3.49-266.94,4.84-536-.91-690.27Q.66,2074.89-.09,2060c.5-4.6,1.11-9.2,1.71-13.8a50.43,50.43,0,0,0,1.7-13.9v-6.5c-.09-1.3-.2-2.6-.3-3.9,0-.27,0-.53.07-.8.16-1.63.23-3.28.23-5v-2.4a10.83,10.83,0,0,0,0-2.75A12,12,0,0,0,0,2004.16v-70.41q365.79-305.1,710.61-632.31,33.72-32,67.25-64.22,187.95,193,373.08,388.65Q1338.94,1824.52,1524.07,2025.89Z" transform="translate(0.09 0)"></path><path class="cls-3" d="M1524.1,2026.22q-.19,149.44-.4,298.9t-.4,299.2a6.57,6.57,0,0,0-.92-.91,5.5,5.5,0,0,0-1.23-.78,3.53,3.53,0,0,0-3.65.09c-1.1.9-.8,2.7-.8,3v.2a2.2,2.2,0,0,0-.1.8v4.5a12.49,12.49,0,0,0-.7,4.7v2.2a10.68,10.68,0,0,0,.3,2.5,15.33,15.33,0,0,0-.2,3.7,10.55,10.55,0,0,0-.2,2.5c0,.4.1.7.1,1a11,11,0,0,0-.8,4.8,17.63,17.63,0,0,0,.7,4,13.65,13.65,0,0,0-.3,7.5,12.31,12.31,0,0,0-.4,3.8,15.77,15.77,0,0,0,1.3,5.6c-.7,17-1.8,34.1-2,51.1l-49.62,57.27H1.6q-1-136.53-1.2-273.07v-90.3c.09-88.25,0-217.55-.34-397.4q0-14.52-.06-29.5,326.25-377.1,652.8-754.5,35.82,32.16,71.62,64.32c55.55,49.92,230.52,207.26,428,386.28C1239.59,1766.77,1366.55,1882.13,1524.1,2026.22Z" transform="translate(0.09 0)"></path><rect class="cls-3" x="0.09" y="2026.21" width="1524.1" height="789"></rect><rect class="cls-3" x="25.58" y="1991.82" width="114.8" height="99.8"></rect></svg> 