<?xml version="1.0" encoding="UTF-8"?> <!-- Generator: Adobe Illustrator 24.0.1, SVG Export Plug-In . SVG Version: 6.00 Build 0) --> <svg xmlns="http://www.w3.org/2000/svg" xmlns:xlink="http://www.w3.org/1999/xlink" version="1.1" id="Camada_1" x="0px" y="0px" viewBox="0 0 1523.3 8192" style="enable-background:new 0 0 1523.3 8192;" xml:space="preserve"> <style type="text/css"> .st0{fill:#323231;} .st1{fill:#FFFDFD;} .st2{fill:#B80F0F;} .st3{fill:#D40F14;} .st4{fill:#B80F14;} .st5{fill:#FFFFFF;} </style> <title>fundo printz (4)</title> <rect y="0" class="st0" width="1523.3" height="8191"></rect> <path class="st1" d="M20.2,929.2c1.1,16.5,2.5,33,4.1,49.5c0.8,7.9-7.1,13.9-14.3,14.3c-0.9,0-1.8,0-2.6-0.2 c-0.9,3.5-1.6,7.1-2.2,10.7c-0.1,0.4-0.1,0.7-0.2,1v0.2c-0.1,0.9-0.2,1.8-0.3,2.8c-0.2,2.3-0.4,4.5-0.6,6.8 c-1.1,16.4-0.3,32.9,0.6,49.4c0.9,16.9,1.2,33.6,1.7,50.5c0.6,21.3,3.2,42.9,0.2,64c-0.3,1.9-0.6,3.8-0.9,5.7 c4.7,2.5,7.6,7.4,7.7,12.7c0,13.4-2.1,26.9-3.7,40.1c-2.4,19.4-4.9,38.8-7.3,58.2c7,0.6,12.8,7.2,12.8,14.2 c0,21.1,0.6,42.1,0.8,63.2c0.3,28.6-1.2,57.2-4.4,85.7c-1.3,11.5-2.7,23-3.5,34.5c2.3,1.9,3.9,4.3,4.8,7.1 c4.8,16.3,5.3,33.5,3.5,50.3c-1.6,15.1-4.6,30.1-6.8,45.2c0,0.1-0.2,1.1-0.2,1.6c-0.1,0.6-0.2,1.7-0.2,1.8c-0.2,1.7-0.4,3.4-0.6,5.1 c-0.3,3.4-0.6,6.8-0.7,10.3c-0.3,7.5-0.3,14.9,0,22.4c0.9,29.5,5.1,59,3.8,88.6c-2.9,2.9-3.1,7.6-0.5,10.7c1.1,3.2,2,6.4,2.8,9.7 c0.5-0.1,1.1-0.1,1.6-0.2c7.7-0.3,14.3,6.8,14.3,14.3c0,11-0.2,22.4-4.1,32.8c-2.1,5.4-5.9,9.4-11.9,10.2 c-4.9,0.6-10.9-1.4-13.7-5.8v1210.2h1523.3V929.2H20.2z"></path> <path class="st2" d="M197.6,1C133.5,97.2,69.4,193.5,5.3,289.8c0.1,24.3,3.1,48.3,6.2,72.3c2.8,21.4,5.7,42.9,6.7,64.5 c1,22.8-1.1,45.5-2,68.2c-1.8,46.9-1.8,93.8-1.8,140.7c0,1.5-0.2,3-0.7,4.4c2.7,2.7,4.3,6.3,4.3,10.1c0,24.3-0.1,48.6-0.1,73 c-0.1,85.3,0.7,170.7,9.2,255.6c0.8,7.9-7.1,13.9-14.3,14.3c-0.9,0-1.8,0-2.6-0.2c-0.9,3.5-1.6,7.1-2.2,10.7c-0.1,0.4-0.1,0.7-0.2,1 v0.2c-0.1,0.9-0.2,1.8-0.3,2.8c-0.2,2.3-0.4,4.5-0.6,6.8c-1.1,16.4-0.3,32.9,0.5,49.4c0.9,16.9,1.2,33.6,1.7,50.5 c0.6,21.3,3.2,42.9,0.2,64c-0.3,1.9-0.6,3.8-0.9,5.7c4.6,2.5,7.6,7.4,7.7,12.7c0,13.4-2.1,26.9-3.7,40.1 c-2.4,19.4-4.9,38.8-7.2,58.2c7,0.6,12.8,7.2,12.8,14.2c0,21.1,0.6,42.1,0.8,63.2c0.2,28.6-1.2,57.2-4.4,85.7 c-1.3,11.5-2.7,23-3.5,34.5c2.3,1.9,3.9,4.3,4.7,7.1c4.8,16.3,5.3,33.5,3.5,50.3c-1.6,15.1-4.6,30.1-6.8,45.2c0,0.1-0.1,1.1-0.2,1.6 c-0.1,0.6-0.2,1.7-0.2,1.8c-0.2,1.7-0.4,3.4-0.6,5.1c-0.3,3.4-0.6,6.8-0.7,10.3c-0.3,7.5-0.3,14.9,0,22.4c0.9,29.5,5.1,59,3.7,88.6 c-0.1,2.6-0.8,5.1-2.1,7.3c0.7,1.1,1.2,2.2,1.6,3.4c1,3.2,2,6.4,2.8,9.7c0.5-0.1,1.1-0.1,1.6-0.2c7.7-0.3,14.2,6.8,14.2,14.3 c0,11-0.2,22.4-4.1,32.8c-2.1,5.4-5.9,9.4-11.9,10.2c-4.9,0.7-11-1.5-13.8-6c0.1,9.7,0.1,19.6,0.1,29.1v14.8h0.1l592.2,414.7 l928.2-1325.7L197.6,1z"></path> <path class="st3" d="M1.1,11.6V23c0,3.7,0,7.4,0,11.1l15.5,9.2C12.2,32.4,7,21.8,1.1,11.6z"></path> <path class="st3" d="M1.1,11.5C0.7,11.3,0.4,11.1,0,11C0,48,0,85.1,0,122.1c0,353.8,0,707.6,0,1061.4c0,30.1,0,60.1,0,90.2 c0,174.3,0,348.5,0,522.8c0,14.5,0,29,0,43.5c224.9,98.8,449.8,197.6,674.7,296.5l693.7-1487.4L1.1,11.5z"></path> <path class="st3" d="M1523.3,4110.6c-0.7-576.2-1.4-1152.4-2-1728.6l-32.6-66.5C992.4,2546,496.2,2776.3,0,3006.7 c231.6,496.7,463.2,993.3,694.8,1490c155.8-71.5,311.2-143.4,466.5-215.9C1282.1,4224.4,1402.7,4167.7,1523.3,4110.6z"></path> <path class="st2" d="M1523.3,4007.4c-0.1-1.6-0.1-3.2-0.2-4.7c0.1-540.9,0.2-1081.8,0.3-1622.7L1370.2,2148L44.6,3076.3 l928.2,1325.6C1156.3,4270.4,1339.8,4138.9,1523.3,4007.4z"></path> <path class="st4" d="M1521.2,6980.1c-0.3-5.5-0.5-10.9-0.5-16.4c-0.1-8.7,0.2-17.5,0.5-26.2c0.7-230.4,1.4-460.9,2-691.3 c-248-259.1-496-518.2-743.9-777.3c-385.5,369.2-775.6,744.2-772,746.9c0.2,0.1,1.5-0.2,2.6,0.7c2.7,2.1,1.7,9.1-3,20.9 c0.3,2.7,0.4,5.3,0.3,8v2.4c0,2-0.1,3.9-0.3,5.8c0.1,1.3,0.2,2.6,0.3,3.9c0,1.1,0,2.2,0,3.3v3.2c0.1,4.7-0.5,9.3-1.7,13.9 c-0.6,4.6-1.2,9.2-1.7,13.8c7.5,151.7,5.9,454.1,1.9,749.1c0.3,0.8,0.6,1.6,0.8,2.5v0.3c0.1,0.4,0.1,0.7,0.2,1 c0,0.3,0.1,0.9,0.1,1.4c0,0.4,0,0.9,0,1.3v0.2c0,0.4-0.1,0.7-0.1,1.1c0,0.1,0,0.3-0.1,0.4c-0.1,0.3-0.1,0.6-0.2,0.9 s-0.1,0.4-0.2,0.6v0.1c-0.2,0.4-0.3,0.9-0.5,1.3c-0.4,25.6-0.7,51.2-1.1,76.6l742.3,774l774.5-745.5v-39.7c-0.2-1-0.3-1.9-0.4-2.9 c-1.7-6.4-2.7-12.9-3-19.5c-0.1-2.2,0-4.4,0.2-6.6c-1.5-5.8-2.3-11.7-2.6-17.6c-0.4-8.6,1.4-17.1,5.1-24.9c-0.1-1.4-0.2-2.8-0.3-4.2 c-0.2-4.3,0.1-8.6,1-12.9L1521.2,6980.1z"></path> <path class="st5" d="M1516.4,6905.2c-0.8-1.8-1.2-3.7-1.3-5.6c-0.1-1.3,0.1-2.5,0.4-3.8c-0.6-2.5-0.5-5.1,0.3-7.5 c-0.4-1.3-0.6-2.6-0.7-4c-0.1-1.7,0.2-3.3,0.8-4.8c0-0.3-0.1-0.6-0.1-1c0-0.8,0-1.7,0.2-2.5c-0.1-1.2,0-2.5,0.2-3.7 c-0.2-0.8-0.3-1.7-0.3-2.5c0-0.5,0-1.1,0-1.6c0-0.2,0-0.4,0-0.6c-0.1-1.6,0.2-3.2,0.7-4.7v-0.6c0-0.2,0-0.4,0-0.5c0-0.5,0-1.1,0-1.6 c0-0.2,0-0.4,0-0.6c0-0.4,0-0.8,0-1.2c0-0.3,0-0.5,0.1-0.8v-0.2c0-0.3-0.3-2.1,0.8-3c1.2-1,3.9-0.7,5.8,1.6 c0.3-199.5,0.5-398.9,0.8-598.4c-123.7-113-247.6-225.7-371.7-338.2c-166.2-150.6-332.7-300.8-499.6-450.6 C435.1,5720.5,217.5,5971.9,0,6223.3c0.4,195.3,0.5,333.9,0.4,426.9c0,20.1,0,49.3,0,90.3c0.1,99.6,0.6,199.2,1.4,298.8 c0.2,0.3,0.3,0.7,0.5,1c0.1,0.1,0.1,0.3,0.1,0.4c0.1,0.3,0.2,0.5,0.3,0.8s0.1,0.3,0.1,0.5l0.2,0.8c0.1,0.3,0.1,0.3,0.1,0.5 c0,0.2,0.1,0.6,0.2,0.9l0.1,0.4c0,0.4,0.1,0.9,0.1,1.3c0,0.4,0,0.9,0,1.3v0.3c0,0.4-0.1,0.8-0.2,1.2c0,0.1,0,0.2-0.1,0.3 c-0.1,0.4-0.2,0.7-0.3,1.1c0,0.1,0,0.2-0.1,0.2c-0.1,0.3-0.2,0.6-0.3,0.9l-0.2,0.4c-0.1,0.3-0.3,0.6-0.4,0.9l-0.1,0.2v6.2 c-0.1-2-0.2-4-0.3-5.8l-0.2,0.4c-0.2,0.3-0.4,0.5-0.5,0.8c0.5,1.4,0.8,2.9,0.8,4.5c0,0.8,0,1.5-0.1,2.3L796,7785.6 c239.4-276.4,478.9-552.9,718.4-829.3C1514.6,6939.3,1515.7,6922.2,1516.4,6905.2z"></path> <path class="st5" d="M1,7028.5c0.1,10,0.1,19.9,0.1,29.9v0.2l0,1.4c-0.9,4.1,2.8,8.3,11,12.3c-2.8-9.6-5.8-24.4-9.1-44.5l-0.6,0.2 L1,7028.5z"></path> <path class="st5" d="M1507.1,8136.8c-2.6-17.8-5.6-35.7-6.7-53.7c-1.9-29.7,4.6-59,5.9-88.5c1.4-31.4-0.1-62.8-0.1-94.2v-189.1 c0.1-6.7,4.8-12.5,11.4-13.9c-1.9-21.6-0.4-42.7,1.1-64.3c0.1-1.3,0.2-2.6,0.2-4V6252.8H0v777.4c0,10.7,0,21.3,0,32V8192h1516.1 c-0.3-0.7-0.5-1.5-0.6-2.2C1512.6,8172.1,1509.7,8154.5,1507.1,8136.8z"></path> <path class="st3" d="M1523.3,7117.6c0.1-86.8,0.2-173.5,0.2-260.3c-5.9-13.8-11.9-27.5-17.9-41.2c-5.8-13.4-11.7-26.7-17.6-40.1 L0.3,7469.7c46.8,166.5,110,347.6,195.8,536.9c29.4,64.8,59.6,126.6,90.4,185.5c412.3,0,824.5,0,1236.8,0 C1523.3,7833.9,1523.3,7475.7,1523.3,7117.6z"></path> <path class="st2" d="M1523.3,7732.4c0-11.7,0-23.3,0-35c0-190.7,0-381.5,0-572.2c0.1-7.3,0.3-14.6,0.4-22 c-0.1-25.8-0.2-51.7-0.4-77.5c-66.5-95.5-133-190.9-199.4-286.4L6.7,7667.6c121.9,174.8,243.9,349.6,365.8,524.4 c381,0,762.1,0,1143.1,0c2.6,0,5.1,0,7.7,0C1523.3,8038.8,1523.3,7885.6,1523.3,7732.4z"></path> <rect x="1389.8" y="7024.8" class="st2" width="131.4" height="1165.4"></rect> <rect x="3.5" y="6223.5" class="st5" width="114.8" height="99.8"></rect> <rect x="1.1" y="31.4" class="st3" width="38" height="1773.5"></rect> </svg> 