<?xml version="1.0" encoding="UTF-8"?> <svg xmlns="http://www.w3.org/2000/svg" id="Camada_1" data-name="Camada 1" viewBox="0 0 1523.28 8193.13"><defs><style>.cls-1{fill:#323231;stroke:#323231;stroke-miterlimit:10;stroke-width:2px;}.cls-2{fill:#fffdfd;}.cls-3{fill:#b80f0f;}.cls-4{fill:#d40f14;}.cls-5{fill:#b80f14;}.cls-6{fill:#fff;}</style></defs><title>fundo printz (4)</title><rect class="cls-1" x="1" y="1" width="1520.34" height="8191.13"></rect><path class="cls-2" d="M269.92,928.33q1.68,24.76,4.11,49.49c.79,7.92-7.13,13.94-14.26,14.26a12.2,12.2,0,0,1-2.63-.16c-.9,3.54-1.59,7.13-2.17,10.73-.07.43-.12.74-.16,1v.17c-.1.93-.22,1.85-.32,2.78q-.35,3.38-.58,6.76c-1.11,16.45-.34,32.95.55,49.39.9,16.87,1.16,33.65,1.69,50.51.64,21.26,3.17,42.92.18,64-.27,1.92-.59,3.84-.9,5.75a14.84,14.84,0,0,1,7.72,12.66c0,13.39-2.08,26.89-3.69,40.15-2.37,19.41-4.9,38.8-7.25,58.21,7,.56,12.76,7.25,12.76,14.25,0,21.07.64,42.13.79,63.19a711.19,711.19,0,0,1-4.43,85.7c-1.32,11.47-2.67,23-3.46,34.46a14.73,14.73,0,0,1,4.75,7.13c4.76,16.33,5.32,33.46,3.54,50.28-1.59,15.15-4.58,30.09-6.78,45.18,0,.14-.15,1.07-.23,1.63s-.22,1.66-.24,1.84c-.21,1.7-.4,3.39-.57,5.09-.33,3.41-.58,6.84-.73,10.29-.31,7.46-.28,14.94,0,22.4.92,29.55,5.13,59,3.75,88.63a8,8,0,0,0-.52,10.73c1.05,3.17,2,6.43,2.81,9.67.53-.07,1.07-.13,1.58-.16,7.69-.34,14.25,6.8,14.25,14.26,0,11-.21,22.45-4.14,32.83-2.07,5.45-5.91,9.42-11.88,10.22-4.87.65-10.88-1.44-13.66-5.84V3006.13h1520.4V928.33Z" transform="translate(-248.82 1)"></path><path class="cls-3" d="M444.61,0Q348.45,144.41,252.24,288.84c.14,24.26,3.06,48.3,6.22,72.34,2.83,21.43,5.72,42.9,6.67,64.52,1,22.78-1.06,45.46-2,68.2-1.85,46.89-1.84,93.84-1.84,140.76a13.86,13.86,0,0,1-.71,4.38,14.67,14.67,0,0,1,4.33,10.15c0,24.32-.08,48.65-.11,73-.07,85.29.75,170.71,9.2,255.65.79,7.92-7.13,13.94-14.26,14.26a12.2,12.2,0,0,1-2.63-.16c-.9,3.54-1.59,7.13-2.17,10.73-.07.43-.12.74-.16,1v.17c-.1.93-.22,1.85-.32,2.78q-.35,3.38-.58,6.76c-1.11,16.45-.34,32.95.55,49.39.9,16.87,1.16,33.65,1.69,50.51.64,21.26,3.17,42.92.18,64-.27,1.92-.59,3.84-.9,5.75a14.84,14.84,0,0,1,7.72,12.66c0,13.39-2.08,26.89-3.69,40.15-2.37,19.41-4.9,38.8-7.25,58.21,7,.56,12.76,7.25,12.76,14.25,0,21.07.64,42.13.79,63.19a711.19,711.19,0,0,1-4.43,85.7c-1.32,11.47-2.67,23-3.46,34.46a14.73,14.73,0,0,1,4.75,7.13c4.76,16.33,5.32,33.46,3.54,50.28-1.59,15.15-4.58,30.09-6.78,45.18,0,.14-.15,1.07-.23,1.63s-.22,1.66-.24,1.84c-.21,1.7-.4,3.39-.57,5.09-.33,3.41-.58,6.84-.73,10.29-.31,7.46-.28,14.94,0,22.4.92,29.55,5.13,59,3.75,88.63a15.6,15.6,0,0,1-2.15,7.28,15.78,15.78,0,0,1,1.63,3.45c1.05,3.17,2,6.43,2.81,9.67.53-.07,1.07-.13,1.58-.16,7.69-.34,14.25,6.8,14.25,14.26,0,11-.21,22.45-4.14,32.83-2.07,5.45-5.91,9.42-11.88,10.22-4.93.66-11-1.51-13.77-6,.08,9.74.11,19.56.11,29.11v14.76h.06l592.3,414.72L1770.45,928.33Z" transform="translate(-248.82 1)"></path><path class="cls-4" d="M249.85,10.59l0,11.43q0,5.57,0,11.1l15.5,9.18A267.14,267.14,0,0,0,249.85,10.59Z" transform="translate(-248.82 1)"></path><path class="cls-4" d="M249.82,10.49h-.06l.06.1c3.3,6.85,1.66,14.19.53,18.07a9.83,9.83,0,0,1,3.9,1.78c22.8,17.32,12.67,51.51,12.51,75.86,0,8-6.5,13.9-14.26,14.25h-.95q.34,6.75.65,14.36c3.76,92.35,2.85,172.53,2.48,194.92,1.08,10.46,2.38,20.91,3.78,31.35,2.83,21.43,5.72,42.9,6.67,64.52,1,22.78-1.06,45.46-2,68.2-1.85,46.89-1.84,93.84-1.84,140.76a13.87,13.87,0,0,1-.72,4.38,14.64,14.64,0,0,1,4.34,10.15c0,24.32-.08,48.65-.11,73-.07,85.29.75,170.71,9.2,255.65.79,7.92-7.13,13.94-14.26,14.26a12.2,12.2,0,0,1-2.63-.16c-.9,3.54-1.59,7.13-2.17,10.73-.07.43-.12.74-.16,1v.17c-.1.93-.22,1.85-.32,2.78q-.35,3.38-.58,6.76c-1.11,16.45-.34,32.95.55,49.39.9,16.87,1.16,33.65,1.69,50.51.64,21.26,3.17,42.92.18,64-.27,1.92-.59,3.84-.9,5.75a14.84,14.84,0,0,1,7.72,12.66c0,13.39-2.08,26.89-3.69,40.15-1.44,12-3,23.92-4.49,35.88q.18,11.43.35,23a14.86,14.86,0,0,1,9.65,13.55c0,21.06.64,42.13.79,63.19a711,711,0,0,1-4.43,85.69c-1.13,9.85-2.29,19.71-3.09,29.6,0,1.76.05,3.5.08,5.25a14.77,14.77,0,0,1,4.34,6.76c4.75,16.33,5.31,33.45,3.53,50.27-1.53,14.4-4.28,28.61-6.43,42.91.5,37.07.88,69.91,1.1,96.21a349.72,349.72,0,0,1,.49,35.91,16,16,0,0,1-.3,2.38v8.92c1,3,1.82,6,2.61,9.07.53-.07,1.07-.14,1.59-.16,7.68-.34,14.25,6.79,14.25,14.25,0,11-.22,22.46-4.14,32.84-2.07,5.45-5.92,9.42-11.88,10.21-5.15.69-11.56-1.68-14.1-6.62q.23,21.55.44,44.74l673.73,296.1L1617.28,648.15Z" transform="translate(-248.82 1)"></path><path class="cls-4" d="M1771.55,4095.53c-.92,10.12-1.39,15.23-1.39,15.23V2381.37l-32.59-66.46L249.88,3008.64,943.6,4496.33c331.66-152.77,636.52-294.36,827.9-386.11a53.92,53.92,0,0,1,.6-8C1771.83,4100,1771.65,4097.75,1771.55,4095.53Z" transform="translate(-248.82 1)"></path><path class="cls-3" d="M1767.79,4011l2.37-104.66v-1525l-153.24-231.91L291.1,3077.81l928.35,1325.83Z" transform="translate(-248.82 1)"></path><path class="cls-5" d="M1770.16,6980.1c-.28-5.46-.49-10.92-.54-16.38-.08-8.71.18-17.46.54-26.18V6245.78l-742-777-776,747a5.93,5.93,0,0,0,.05.94c3-1.14,5.11-1.23,6.4-.23q4.1,3.18-3,20.86a55.24,55.24,0,0,1,.28,8v2.42c0,2-.09,3.91-.26,5.82.11,1.29.21,2.58.26,3.86,0,1.1,0,2.18,0,3.26v3.17a52.31,52.31,0,0,1-1.66,13.87q-.88,6.91-1.74,13.84c7.54,151.68,5.93,454.21,1.87,749.23h0a15.81,15.81,0,0,1,.8,2.5v.26c.07.35.14.69.19,1s.1.91.12,1.38a9.11,9.11,0,0,1,0,1.28v.22a6.53,6.53,0,0,1-.15,1.08,2.14,2.14,0,0,1-.08.44c-.06.3-.13.58-.21.87s-.14.44-.22.65l0,.15a12.19,12.19,0,0,1-.55,1.29q-.53,38.46-1.11,76.57l742.41,774.14,774.64-745.64v-39.69c-.15-1-.28-1.93-.41-2.9a86.89,86.89,0,0,1-3-19.49,55.21,55.21,0,0,1,.15-6.56,87.71,87.71,0,0,1-2.56-17.65,51.62,51.62,0,0,1,5.12-24.87c-.13-1.4-.23-2.79-.29-4.18a53.05,53.05,0,0,1,1-12.88Z" transform="translate(-248.82 1)"></path><path class="cls-6" d="M1765.35,6905.17a15.94,15.94,0,0,1-1.33-5.6,11.93,11.93,0,0,1,.45-3.76,13.89,13.89,0,0,1,.25-7.51,16.13,16.13,0,0,1-.7-4,12,12,0,0,1,.8-4.85c0-.31-.08-.64-.09-1a11,11,0,0,1,.17-2.49,19.07,19.07,0,0,1,.15-3.7,16.54,16.54,0,0,1-.32-2.52,11.86,11.86,0,0,1,0-1.58,2.2,2.2,0,0,0,0-.57,12.17,12.17,0,0,1,.74-4.67v-.62c0-.2,0-.35,0-.52a9.75,9.75,0,0,1,0-1.62,2.64,2.64,0,0,0,0-.56,7.88,7.88,0,0,1,0-1.19,7.46,7.46,0,0,1,.07-.79v-.16a13,13,0,0,1,2.2-5.67V6269.73a88.09,88.09,0,0,1-1-10.11c-.07-1.87,0-3.71.06-5.55-169.6-158.37-517.15-472.36-865.37-785.3l-646,747.5c-3.43,78.16-3.63,141.34-3.16,185.29.79,72.46,3.65,109.52,0,175.79-.8,14.18-3.12,38.1-3.17,72.85q0,45.14,0,90.27.16,149.41,1.42,298.83c.18.33.34.67.49,1a3,3,0,0,1,.15.38c.12.27.22.55.31.79s.1.31.15.46l.22.79c.06.26.08.31.11.47s.11.59.16.88l.07.42c0,.43.09.88.12,1.32s0,.86,0,1.28v.25c0,.39-.09.79-.16,1.18a.48.48,0,0,1-.06.28,10.65,10.65,0,0,1-.27,1.08.73.73,0,0,1-.08.25c-.1.31-.22.62-.34.91l-.16.4c-.14.3-.29.59-.45.89l-.11.2v6.24c-.09-2-.17-4-.26-5.83l-.24.4c-.18.26-.36.51-.54.79a16.15,16.15,0,0,1,.85,4.46,11.59,11.59,0,0,1-.13,2.28l794.46,724.85Q1404,7371,1763.32,6956.26C1763.49,6939.22,1764.66,6922.18,1765.35,6905.17Z" transform="translate(-248.82 1)"></path><path class="cls-6" d="M249.68,7028.48q.1,14.94.07,29.88v.17l-.05,1.35c-.94,4.11,2.85,8.35,11,12.33q-4.14-14.37-9.15-44.49l-.56.18Z" transform="translate(-248.82 1)"></path><path class="cls-6" d="M1756.07,8135.19c-2.6-17.76-5.59-35.69-6.73-53.61-1.87-29.63,4.56-58.93,5.86-88.44,1.36-31.35-.12-62.77-.12-94.13v-189a14.3,14.3,0,0,1,11.42-13.86c-1.91-21.54-.37-42.69,1.06-64.22.09-1.32.16-2.63.23-4V6252.69h-1518v776.8c.06.14.12.27.17.42a10.71,10.71,0,0,1,1.22,5.47v.66c.09.17.19.33.27.51s.13.24.19.36l.28.69c.1.23.13.35.2.53s.14.42.2.64.13.43.19.65.1.38.14.57.1.55.15.79a3.81,3.81,0,0,0,.07.47q.09.66.12,1.32a10,10,0,0,1,0,1.34,1.38,1.38,0,0,1-.05.45,4.34,4.34,0,0,1-.12.86c0,.28-.07.34-.11.51s-.12.51-.19.76l-.16.53a7.07,7.07,0,0,1-.27.69,4.23,4.23,0,0,1-.23.53c-.08.18-.2.44-.31.65s-.18.35-.28.52-.26.42-.4.63a4.64,4.64,0,0,1-.3.46l-.23.3a15.6,15.6,0,0,1,.86,4.44,12.43,12.43,0,0,1-1.41,6.24V8190.34H1765a10.24,10.24,0,0,1-.64-2.24C1761.51,8170.47,1758.66,8152.84,1756.07,8135.19Z" transform="translate(-248.82 1)"></path><path class="cls-4" d="M1756.07,8135.19c-2.6-17.76-5.59-35.69-6.73-53.61-1.87-29.63,4.56-58.93,5.86-88.44,1.36-31.35-.12-62.77-.12-94.13v-189a14.3,14.3,0,0,1,11.42-13.86c-1.91-21.55-.37-42.69,1.06-64.22.84-12.55.33-25.34,1.37-37.95-1.37-110.17-1.3-260.36,1.58-467.92.15-2.93.29-5.77.43-8.54a47.66,47.66,0,0,1,.65-13.38v-.11a7,7,0,0,1,.07-1.2,13.82,13.82,0,0,1-1.33-5.79c0-13.92,0-27.84.19-41.76a381.45,381.45,0,0,1,.58-58.45c-.61-11.09-1.38-22.17-1.49-33.26-.17-19.5,1.26-39,2.06-58.46a15.74,15.74,0,0,1-1.34-5.61,11.91,11.91,0,0,1,.45-3.75,13.79,13.79,0,0,1,.25-7.51,15.76,15.76,0,0,1-.7-4,12,12,0,0,1,.79-4.86c0-.31-.07-.63-.09-1a12.12,12.12,0,0,1,.16-2.48,19.19,19.19,0,0,1,.17-3.71,16.4,16.4,0,0,1-.33-2.52,12,12,0,0,1,0-1.58,2.12,2.12,0,0,0,0-.56,12,12,0,0,1,.75-4.67v-.62a1.7,1.7,0,0,0,0-.52,11.1,11.1,0,0,1,0-1.63,2.09,2.09,0,0,0,0-.55,11.22,11.22,0,0,1,0-1.16,2.55,2.55,0,0,1,0-.55v-.1a10.25,10.25,0,0,1,.29-1.64c-11.77-26.72-23.3-53.45-35.12-80.18L249,7469.69a3737.84,3737.84,0,0,0,195.85,536.94q43.92,96.6,90.07,184.5c520.82-6.62,1102.64-11.32,1221,0a71.24,71.24,0,0,1,9.89.87,10.17,10.17,0,0,1-1.51-3.9C1761.51,8170.47,1758.66,8152.84,1756.07,8135.19Z" transform="translate(-248.82 1)"></path><path class="cls-3" d="M1756.07,8135.19c-2.6-17.76-5.59-35.69-6.73-53.61-1.87-29.63,4.56-58.93,5.86-88.44,1.36-31.35-.12-62.77-.12-94.13v-189a14.3,14.3,0,0,1,11.42-13.85c-1.91-21.55-.37-42.7,1.06-64.23.8-11.25.42-22.73,1.09-34.05.55-106-1.45-114-.16-263.56.69-80.33,1.9-151.63,3.17-210.95a52,52,0,0,1-.11-19.22c.07-.33.17-.64.26-1a14,14,0,0,1-1.49-6.14c0-19.17,0-38.35.48-57.52-.14-1.53-.25-3.06-.31-4.58-.08-1.81,0-3.58,0-5.34-.54-2.56-1-5.16-1.29-7.76l-196.38-282.62L255.41,7667.61l364.25,523.52c2.26,0,532.22-2.93,1144.12,0,.34-.36.7-.7,1-1.05a10,10,0,0,1-.53-2C1761.51,8170.47,1758.66,8152.84,1756.07,8135.19Z" transform="translate(-248.82 1)"></path><rect class="cls-3" x="1389.89" y="7025.74" width="131.45" height="1165.59"></rect><rect class="cls-6" x="3.38" y="6224.4" width="114.82" height="99.77"></rect><rect class="cls-4" x="1" y="31.38" width="38.01" height="1773.73"></rect></svg> 